/Videos/73a599ab471b896924041eb72b5259b6/hls1/main/0.ts

{"Protocol":0,"Id":"73a599ab471b896924041eb72b5259b6","Path":"/data/tvshows/Secret Invasion/Season 1/Secret Invasion - S01E01 - Resurrection WEBDL-2160p.mkv","EncoderPath":null,"EncoderProtocol":null,"Type":0,"Container":"mkv,webm","Size":5470868480,"Name":"Secret Invasion - S01E01 - Resurrection WEBDL-2160p","IsRemote":false,"ETag":"17cd58ac95219df3baa9a83917d77d7e","RunTimeTicks":31679680512,"ReadAtNativeFramerate":false,"IgnoreDts":false,"IgnoreIndex":false,"GenPtsInput":false,"SupportsTranscoding":true,"SupportsDirectStream":true,"SupportsDirectPlay":true,"IsInfiniteStream":false,"RequiresOpening":false,"OpenToken":null,"RequiresClosing":false,"LiveStreamId":null,"BufferMs":null,"RequiresLooping":false,"SupportsProbing":true,"VideoType":0,"IsoType":null,"Video3DFormat":null,"MediaStreams":[{"Codec":"hevc","CodecTag":null,"Language":null,"ColorRange":null,"ColorSpace":"bt709","ColorTransfer":"bt709","ColorPrimaries":"bt709","DvVersionMajor":null,"DvVersionMinor":null,"DvProfile":null,"DvLevel":null,"RpuPresentFlag":null,"ElPresentFlag":null,"BlPresentFlag":null,"DvBlSignalCompatibilityId":null,"Comment":null,"TimeBase":"1/1000","CodecTimeBase":null,"Title":null,"VideoRange":"SDR","VideoRangeType":"SDR","VideoDoViTitle":null,"LocalizedUndefined":null,"LocalizedDefault":null,"LocalizedForced":null,"LocalizedExternal":null,"DisplayTitle":"4K HEVC SDR","NalLengthSize":null,"IsInterlaced":false,"IsAVC":null,"ChannelLayout":null,"BitRate":13815463,"BitDepth":8,"RefFrames":1,"PacketLength":null,"Channels":null,"SampleRate":null,"IsDefault":true,"IsForced":false,"Height":2160,"Width":3840,"AverageFrameRate":24,"RealFrameRate":24,"Profile":"Main","Type":1,"AspectRatio":"16:9","Index":0,"Score":null,"IsExternal":false,"DeliveryMethod":null,"DeliveryUrl":null,"IsExternalUrl":null,"IsTextSubtitleStream":false,"SupportsExternalStream":false,"Path":null,"PixelFormat":"yuv420p","Level":150,"IsAnamorphic":null},{"Codec":"eac3","CodecTag":null,"Language":"eng","ColorRange":null,"ColorSpace":null,"ColorTransfer":null,"ColorPrimaries":null,"DvVersionMajor":null,"DvVersionMinor":null,"DvProfile":null,"DvLevel":null,"RpuPresentFlag":null,"ElPresentFlag":null,"BlPresentFlag":null,"DvBlSignalCompatibilityId":null,"Comment":null,"TimeBase":"1/1000","CodecTimeBase":null,"Title":null,"VideoRange":null,"VideoRangeType":null,"VideoDoViTitle":null,"LocalizedUndefined":null,"LocalizedDefault":null,"LocalizedForced":null,"LocalizedExternal":null,"DisplayTitle":"English - Dolby Digital\u002B - 5.1 - Default","NalLengthSize":null,"IsInterlaced":false,"IsAVC":null,"ChannelLayout":"5.1","BitRate":768000,"BitDepth":null,"RefFrames":null,"PacketLength":null,"Channels":6,"SampleRate":48000,"IsDefault":true,"IsForced":false,"Height":null,"Width":null,"AverageFrameRate":null,"RealFrameRate":null,"Profile":null,"Type":0,"AspectRatio":null,"Index":1,"Score":null,"IsExternal":false,"DeliveryMethod":null,"DeliveryUrl":null,"IsExternalUrl":null,"IsTextSubtitleStream":false,"SupportsExternalStream":false,"Path":null,"PixelFormat":null,"Level":0,"IsAnamorphic":null},{"Codec":"subrip","CodecTag":null,"Language":"eng","ColorRange":null,"ColorSpace":null,"ColorTransfer":null,"ColorPrimaries":null,"DvVersionMajor":null,"DvVersionMinor":null,"DvProfile":null,"DvLevel":null,"RpuPresentFlag":null,"ElPresentFlag":null,"BlPresentFlag":null,"DvBlSignalCompatibilityId":null,"Comment":null,"TimeBase":"1/1000","CodecTimeBase":null,"Title":null,"VideoRange":null,"VideoRangeType":null,"VideoDoViTitle":null,"LocalizedUndefined":"Undefined","LocalizedDefault":"Default","LocalizedForced":"Forced","LocalizedExternal":"External","DisplayTitle":"English - SUBRIP","NalLengthSize":null,"IsInterlaced":false,"IsAVC":null,"ChannelLayout":null,"BitRate":null,"BitDepth":null,"RefFrames":null,"PacketLength":null,"Channels":null,"SampleRate":null,"IsDefault":false,"IsForced":false,"Height":null,"Width":null,"AverageFrameRate":null,"RealFrameRate":null,"Profile":null,"Type":2,"AspectRatio":null,"Index":2,"Score":null,"IsExternal":false,"DeliveryMethod":null,"DeliveryUrl":null,"IsExternalUrl":null,"IsTextSubtitleStream":true,"SupportsExternalStream":true,"Path":null,"PixelFormat":null,"Level":0,"IsAnamorphic":null},{"Codec":"subrip","CodecTag":null,"Language":"eng","ColorRange":null,"ColorSpace":null,"ColorTransfer":null,"ColorPrimaries":null,"DvVersionMajor":null,"DvVersionMinor":null,"DvProfile":null,"DvLevel":null,"RpuPresentFlag":null,"ElPresentFlag":null,"BlPresentFlag":null,"DvBlSignalCompatibilityId":null,"Comment":null,"TimeBase":"1/1000","CodecTimeBase":null,"Title":"SDH","VideoRange":null,"VideoRangeType":null,"VideoDoViTitle":null,"LocalizedUndefined":"Undefined","LocalizedDefault":"Default","LocalizedForced":"Forced","LocalizedExternal":"External","DisplayTitle":"SDH - English - SUBRIP","NalLengthSize":null,"IsInterlaced":false,"IsAVC":null,"ChannelLayout":null,"BitRate":null,"BitDepth":null,"RefFrames":null,"PacketLength":null,"Channels":null,"SampleRate":null,"IsDefault":false,"IsForced":false,"Height":null,"Width":null,"AverageFrameRate":null,"RealFrameRate":null,"Profile":null,"Type":2,"AspectRatio":null,"Index":3,"Score":null,"IsExternal":false,"DeliveryMethod":null,"DeliveryUrl":null,"IsExternalUrl":null,"IsTextSubtitleStream":true,"SupportsExternalStream":true,"Path":null,"PixelFormat":null,"Level":0,"IsAnamorphic":null}],"MediaAttachments":[],"Formats":[],"Bitrate":14583463,"Timestamp":null,"RequiredHttpHeaders":{},"TranscodingUrl":null,"TranscodingSubProtocol":null,"TranscodingContainer":null,"AnalyzeDurationMs":null,"DefaultAudioStreamIndex":null,"DefaultSubtitleStreamIndex":null}

/usr/lib/jellyfin-ffmpeg/ffmpeg -analyzeduration 200M -fflags +genpts -f matroska,webm  -i file:"/data/tvshows/Secret Invasion/Season 1/Secret Invasion - S01E01 - Resurrection WEBDL-2160p.mkv" -map_metadata -1 -map_chapters -1 -threads 0 -map 0:0 -map 0:1 -map -0:s -codec:v:0 copy -tag:v:0 hvc1 -bsf:v hevc_mp4toannexb -start_at_zero -codec:a:0 copy -copyts -avoid_negative_ts disabled -max_muxing_queue_size 2048 -f hls -max_delay 5000000 -hls_time 6 -hls_segment_type mpegts -start_number 0 -hls_segment_filename "/data/transcodes/36526249ed0b1f20ddd8f88a35491354%d.ts" -hls_playlist_type vod -hls_list_size 0 -y "/data/transcodes/36526249ed0b1f20ddd8f88a35491354.m3u8"


ffmpeg version 5.1.3-Jellyfin Copyright (c) 2000-2022 the FFmpeg developers
  built with gcc 11 (Ubuntu 11.3.0-1ubuntu1~22.04.1)
  configuration: --prefix=/usr/lib/jellyfin-ffmpeg --target-os=linux --extra-libs=-lfftw3f --extra-version=Jellyfin --disable-doc --disable-ffplay --disable-ptx-compression --disable-static --disable-libxcb --disable-sdl2 --disable-xlib --enable-lto --enable-gpl --enable-version3 --enable-shared --enable-gmp --enable-gnutls --enable-chromaprint --enable-libdrm --enable-libass --enable-libfreetype --enable-libfribidi --enable-libfontconfig --enable-libbluray --enable-libmp3lame --enable-libopus --enable-libtheora --enable-libvorbis --enable-libopenmpt --enable-libdav1d --enable-libwebp --enable-libvpx --enable-libx264 --enable-libx265 --enable-libzvbi --enable-libzimg --enable-libfdk-aac --arch=amd64 --enable-libsvtav1 --enable-libshaderc --enable-libplacebo --enable-vulkan --enable-opencl --enable-vaapi --enable-amf --enable-libmfx --enable-ffnvcodec --enable-cuda --enable-cuda-llvm --enable-cuvid --enable-nvdec --enable-nvenc
  libavutil      57. 28.100 / 57. 28.100
  libavcodec     59. 37.100 / 59. 37.100
  libavformat    59. 27.100 / 59. 27.100
  libavdevice    59.  7.100 / 59.  7.100
  libavfilter     8. 44.100 /  8. 44.100
  libswscale      6.  7.100 /  6.  7.100
  libswresample   4.  7.100 /  4.  7.100
  libpostproc    56.  6.100 / 56.  6.100
Input #0, matroska,webm, from 'file:/data/tvshows/Secret Invasion/Season 1/Secret Invasion - S01E01 - Resurrection WEBDL-2160p.mkv':
  Metadata:
    encoder         : libebml v1.4.4 + libmatroska v1.7.1
  Duration: 00:52:47.97, start: 0.000000, bitrate: 13815 kb/s
  Chapters:
    Chapter #0:0: start 0.000000, end 478.000000
      Metadata:
        title           : Chapter 01
    Chapter #0:1: start 478.000000, end 601.542000
      Metadata:
        title           : Intro
    Chapter #0:2: start 601.542000, end 3011.917000
      Metadata:
        title           : Chapter 03
    Chapter #0:3: start 3011.917000, end 3167.968000
      Metadata:
        title           : Credits
  Stream #0:0: Video: hevc (Main), yuv420p(tv, bt709), 3840x2160 [SAR 1:1 DAR 16:9], 24 fps, 24 tbr, 1k tbn (default) (original)
    Metadata:
      BPS             : 13045423
      DURATION        : 00:52:47.917000000
      NUMBER_OF_FRAMES: 76030
      NUMBER_OF_BYTES : 5165852502
      _STATISTICS_WRITING_APP: mkvmerge v77.0 ('Elemental') 64-bit
      _STATISTICS_TAGS: BPS DURATION NUMBER_OF_FRAMES NUMBER_OF_BYTES
  Stream #0:1(eng): Audio: eac3, 48000 Hz, 5.1(side), fltp, 768 kb/s (default) (original)
    Metadata:
      BPS             : 768000
      DURATION        : 00:52:47.968000000
      NUMBER_OF_FRAMES: 98999
      NUMBER_OF_BYTES : 304124928
      _STATISTICS_WRITING_APP: mkvmerge v77.0 ('Elemental') 64-bit
      _STATISTICS_TAGS: BPS DURATION NUMBER_OF_FRAMES NUMBER_OF_BYTES
  Stream #0:2(eng): Subtitle: subrip
    Metadata:
      BPS             : 44
      DURATION        : 00:49:10.792000000
      NUMBER_OF_FRAMES: 466
      NUMBER_OF_BYTES : 16264
      _STATISTICS_WRITING_APP: mkvmerge v77.0 ('Elemental') 64-bit
      _STATISTICS_TAGS: BPS DURATION NUMBER_OF_FRAMES NUMBER_OF_BYTES
  Stream #0:3(eng): Subtitle: subrip (original) (hearing impaired)
    Metadata:
      title           : SDH
      BPS             : 48
      DURATION        : 00:49:22.667000000
      NUMBER_OF_FRAMES: 541
      NUMBER_OF_BYTES : 18121
      _STATISTICS_WRITING_APP: mkvmerge v77.0 ('Elemental') 64-bit
      _STATISTICS_TAGS: BPS DURATION NUMBER_OF_FRAMES NUMBER_OF_BYTES
Output #0, hls, to '/data/transcodes/36526249ed0b1f20ddd8f88a35491354.m3u8':
  Metadata:
    encoder         : Lavf59.27.100
  Stream #0:0: Video: hevc (Main) (hvc1 / 0x31637668), yuv420p(tv, bt709), 3840x2160 [SAR 1:1 DAR 16:9], q=2-31, 24 fps, 24 tbr, 90k tbn (default) (original)
  Stream #0:1: Audio: eac3, 48000 Hz, 5.1(side), fltp, 768 kb/s (default) (original)
Stream mapping:
  Stream #0:0 -> #0:0 (copy)
  Stream #0:1 -> #0:1 (copy)
Press [q] to stop, [?] for help
frame=    1 fps=0.0 q=-1.0 size=N/A time=00:00:00.00 bitrate=N/A speed=N/A    
[hls @ 0x55558392b040] Opening '/data/transcodes/36526249ed0b1f20ddd8f88a354913540.ts' for writing
[hls @ 0x55558392b040] Opening '/data/transcodes/36526249ed0b1f20ddd8f88a354913541.ts' for writing
[hls @ 0x55558392b040] Opening '/data/transcodes/36526249ed0b1f20ddd8f88a354913542.ts' for writing
[hls @ 0x55558392b040] Opening '/data/transcodes/36526249ed0b1f20ddd8f88a354913543.ts' for writing
[hls @ 0x55558392b040] Opening '/data/transcodes/36526249ed0b1f20ddd8f88a354913544.ts' for writing
[hls @ 0x55558392b040] Opening '/data/transcodes/36526249ed0b1f20ddd8f88a354913545.ts' for writing
[hls @ 0x55558392b040] Opening '/data/transcodes/36526249ed0b1f20ddd8f88a354913546.ts' for writing
[hls @ 0x55558392b040] Opening '/data/transcodes/36526249ed0b1f20ddd8f88a354913547.ts' for writing
[hls @ 0x55558392b040] Opening '/data/transcodes/36526249ed0b1f20ddd8f88a354913548.ts' for writing
[hls @ 0x55558392b040] Opening '/data/transcodes/36526249ed0b1f20ddd8f88a354913549.ts' for writing
frame= 1558 fps=0.0 q=-1.0 size=N/A time=00:00:00.09 bitrate=N/A speed=0.189x    
[hls @ 0x55558392b040] Opening '/data/transcodes/36526249ed0b1f20ddd8f88a3549135410.ts' for writing
[hls @ 0x55558392b040] Opening '/data/transcodes/36526249ed0b1f20ddd8f88a3549135411.ts' for writing
[hls @ 0x55558392b040] Opening '/data/transcodes/36526249ed0b1f20ddd8f88a3549135412.ts' for writing
[hls @ 0x55558392b040] Opening '/data/transcodes/36526249ed0b1f20ddd8f88a3549135413.ts' for writing
[hls @ 0x55558392b040] Opening '/data/transcodes/36526249ed0b1f20ddd8f88a3549135414.ts' for writing
[hls @ 0x55558392b040] Opening '/data/transcodes/36526249ed0b1f20ddd8f88a3549135415.ts' for writing
frame= 2445 fps=2445 q=-1.0 size=N/A time=00:00:37.02 bitrate=N/A speed=  37x    
[hls @ 0x55558392b040] Opening '/data/transcodes/36526249ed0b1f20ddd8f88a3549135416.ts' for writing
[hls @ 0x55558392b040] Opening '/data/transcodes/36526249ed0b1f20ddd8f88a3549135417.ts' for writing
[hls @ 0x55558392b040] Opening '/data/transcodes/36526249ed0b1f20ddd8f88a3549135418.ts' for writing
[hls @ 0x55558392b040] Opening '/data/transcodes/36526249ed0b1f20ddd8f88a3549135419.ts' for writing
[hls @ 0x55558392b040] Opening '/data/transcodes/36526249ed0b1f20ddd8f88a3549135420.ts' for writing
[hls @ 0x55558392b040] Opening '/data/transcodes/36526249ed0b1f20ddd8f88a3549135421.ts' for writing
[hls @ 0x55558392b040] Opening '/data/transcodes/36526249ed0b1f20ddd8f88a3549135422.ts' for writing
frame= 3313 fps=2203 q=-1.0 size=N/A time=00:01:13.15 bitrate=N/A speed=48.6x    
[hls @ 0x55558392b040] Opening '/data/transcodes/36526249ed0b1f20ddd8f88a3549135423.ts' for writing
[hls @ 0x55558392b040] Opening '/data/transcodes/36526249ed0b1f20ddd8f88a3549135424.ts' for writing
[hls @ 0x55558392b040] Opening '/data/transcodes/36526249ed0b1f20ddd8f88a3549135425.ts' for writing
[hls @ 0x55558392b040] Opening '/data/transcodes/36526249ed0b1f20ddd8f88a3549135426.ts' for writing
[hls @ 0x55558392b040] Opening '/data/transcodes/36526249ed0b1f20ddd8f88a3549135427.ts' for writing
frame= 4139 fps=2065 q=-1.0 size=N/A time=00:01:47.61 bitrate=N/A speed=53.7x    
[hls @ 0x55558392b040] Opening '/data/transcodes/36526249ed0b1f20ddd8f88a3549135428.ts' for writing
[hls @ 0x55558392b040] Opening '/data/transcodes/36526249ed0b1f20ddd8f88a3549135429.ts' for writing
[hls @ 0x55558392b040] Opening '/data/transcodes/36526249ed0b1f20ddd8f88a3549135430.ts' for writing
[hls @ 0x55558392b040] Opening '/data/transcodes/36526249ed0b1f20ddd8f88a3549135431.ts' for writing
[hls @ 0x55558392b040] Opening '/data/transcodes/36526249ed0b1f20ddd8f88a3549135432.ts' for writing
[hls @ 0x55558392b040] Opening '/data/transcodes/36526249ed0b1f20ddd8f88a3549135433.ts' for writing
[hls @ 0x55558392b040] Opening '/data/transcodes/36526249ed0b1f20ddd8f88a3549135434.ts' for writing
frame= 5041 fps=2013 q=-1.0 size=N/A time=00:02:25.15 bitrate=N/A speed=  58x    
[hls @ 0x55558392b040] Opening '/data/transcodes/36526249ed0b1f20ddd8f88a3549135435.ts' for writing
[hls @ 0x55558392b040] Opening '/data/transcodes/36526249ed0b1f20ddd8f88a3549135436.ts' for writing
[hls @ 0x55558392b040] Opening '/data/transcodes/36526249ed0b1f20ddd8f88a3549135437.ts' for writing
[hls @ 0x55558392b040] Opening '/data/transcodes/36526249ed0b1f20ddd8f88a3549135438.ts' for writing
[hls @ 0x55558392b040] Opening '/data/transcodes/36526249ed0b1f20ddd8f88a3549135439.ts' for writing
[hls @ 0x55558392b040] Opening '/data/transcodes/36526249ed0b1f20ddd8f88a3549135440.ts' for writing
frame= 6041 fps=2010 q=-1.0 size=N/A time=00:03:06.81 bitrate=N/A speed=62.2x    
[hls @ 0x55558392b040] Opening '/data/transcodes/36526249ed0b1f20ddd8f88a3549135441.ts' for writing
[hls @ 0x55558392b040] Opening '/data/transcodes/36526249ed0b1f20ddd8f88a3549135442.ts' for writing
[hls @ 0x55558392b040] Opening '/data/transcodes/36526249ed0b1f20ddd8f88a3549135443.ts' for writing
[hls @ 0x55558392b040] Opening '/data/transcodes/36526249ed0b1f20ddd8f88a3549135444.ts' for writing
frame= 6529 fps=1858 q=-1.0 size=N/A time=00:03:27.13 bitrate=N/A speed=58.9x    
[hls @ 0x55558392b040] Opening '/data/transcodes/36526249ed0b1f20ddd8f88a3549135445.ts' for writing
[hls @ 0x55558392b040] Opening '/data/transcodes/36526249ed0b1f20ddd8f88a3549135446.ts' for writing
[hls @ 0x55558392b040] Opening '/data/transcodes/36526249ed0b1f20ddd8f88a3549135447.ts' for writing
[hls @ 0x55558392b040] Opening '/data/transcodes/36526249ed0b1f20ddd8f88a3549135448.ts' for writing
[hls @ 0x55558392b040] Opening '/data/transcodes/36526249ed0b1f20ddd8f88a3549135449.ts' for writing
[hls @ 0x55558392b040] Opening '/data/transcodes/36526249ed0b1f20ddd8f88a3549135450.ts' for writing
[hls @ 0x55558392b040] Opening '/data/transcodes/36526249ed0b1f20ddd8f88a3549135451.ts' for writing
frame= 7489 fps=1855 q=-1.0 size=N/A time=00:04:07.13 bitrate=N/A speed=61.2x    
[hls @ 0x55558392b040] Opening '/data/transcodes/36526249ed0b1f20ddd8f88a3549135452.ts' for writing
[hls @ 0x55558392b040] Opening '/data/transcodes/36526249ed0b1f20ddd8f88a3549135453.ts' for writing
[hls @ 0x55558392b040] Opening '/data/transcodes/36526249ed0b1f20ddd8f88a3549135454.ts' for writing
[hls @ 0x55558392b040] Opening '/data/transcodes/36526249ed0b1f20ddd8f88a3549135455.ts' for writing
[hls @ 0x55558392b040] Opening '/data/transcodes/36526249ed0b1f20ddd8f88a3549135456.ts' for writing
[hls @ 0x55558392b040] Opening '/data/transcodes/36526249ed0b1f20ddd8f88a3549135457.ts' for writing
[hls @ 0x55558392b040] Opening '/data/transcodes/36526249ed0b1f20ddd8f88a3549135458.ts' for writing
frame= 8497 fps=1873 q=-1.0 size=N/A time=00:04:49.15 bitrate=N/A speed=63.7x    
[hls @ 0x55558392b040] Opening '/data/transcodes/36526249ed0b1f20ddd8f88a3549135459.ts' for writing
[hls @ 0x55558392b040] Opening '/data/transcodes/36526249ed0b1f20ddd8f88a3549135460.ts' for writing
[hls @ 0x55558392b040] Opening '/data/transcodes/36526249ed0b1f20ddd8f88a3549135461.ts' for writing
[hls @ 0x55558392b040] Opening '/data/transcodes/36526249ed0b1f20ddd8f88a3549135462.ts' for writing
[hls @ 0x55558392b040] Opening '/data/transcodes/36526249ed0b1f20ddd8f88a3549135463.ts' for writing
[hls @ 0x55558392b040] Opening '/data/transcodes/36526249ed0b1f20ddd8f88a3549135464.ts' for writing
[hls @ 0x55558392b040] Opening '/data/transcodes/36526249ed0b1f20ddd8f88a3549135465.ts' for writing
[hls @ 0x55558392b040] Opening '/data/transcodes/36526249ed0b1f20ddd8f88a3549135466.ts' for writing
frame= 9721 fps=1930 q=-1.0 size=N/A time=00:05:40.15 bitrate=N/A speed=67.5x    
[hls @ 0x55558392b040] Opening '/data/transcodes/36526249ed0b1f20ddd8f88a3549135467.ts' for writing
[hls @ 0x55558392b040] Opening '/data/transcodes/36526249ed0b1f20ddd8f88a3549135468.ts' for writing
[hls @ 0x55558392b040] Opening '/data/transcodes/36526249ed0b1f20ddd8f88a3549135469.ts' for writing
[hls @ 0x55558392b040] Opening '/data/transcodes/36526249ed0b1f20ddd8f88a3549135470.ts' for writing
[hls @ 0x55558392b040] Opening '/data/transcodes/36526249ed0b1f20ddd8f88a3549135471.ts' for writing
[hls @ 0x55558392b040] Opening '/data/transcodes/36526249ed0b1f20ddd8f88a3549135472.ts' for writing
[hls @ 0x55558392b040] Opening '/data/transcodes/36526249ed0b1f20ddd8f88a3549135473.ts' for writing
[hls @ 0x55558392b040] Opening '/data/transcodes/36526249ed0b1f20ddd8f88a3549135474.ts' for writing
frame=10815 fps=1953 q=-1.0 size=N/A time=00:06:25.82 bitrate=N/A speed=69.7x    
[hls @ 0x55558392b040] Opening '/data/transcodes/36526249ed0b1f20ddd8f88a3549135475.ts' for writing
[hls @ 0x55558392b040] Opening '/data/transcodes/36526249ed0b1f20ddd8f88a3549135476.ts' for writing
[hls @ 0x55558392b040] Opening '/data/transcodes/36526249ed0b1f20ddd8f88a3549135477.ts' for writing
[hls @ 0x55558392b040] Opening '/data/transcodes/36526249ed0b1f20ddd8f88a3549135478.ts' for writing
[hls @ 0x55558392b040] Opening '/data/transcodes/36526249ed0b1f20ddd8f88a3549135479.ts' for writing
[hls @ 0x55558392b040] Opening '/data/transcodes/36526249ed0b1f20ddd8f88a3549135480.ts' for writing
[hls @ 0x55558392b040] Opening '/data/transcodes/36526249ed0b1f20ddd8f88a3549135481.ts' for writing
frame=11809 fps=1955 q=-1.0 size=N/A time=00:07:07.13 bitrate=N/A speed=70.7x    
[hls @ 0x55558392b040] Opening '/data/transcodes/36526249ed0b1f20ddd8f88a3549135482.ts' for writing
[hls @ 0x55558392b040] Opening '/data/transcodes/36526249ed0b1f20ddd8f88a3549135483.ts' for writing
[hls @ 0x55558392b040] Opening '/data/transcodes/36526249ed0b1f20ddd8f88a3549135484.ts' for writing
[hls @ 0x55558392b040] Opening '/data/transcodes/36526249ed0b1f20ddd8f88a3549135485.ts' for writing
[hls @ 0x55558392b040] Opening '/data/transcodes/36526249ed0b1f20ddd8f88a3549135486.ts' for writing
[hls @ 0x55558392b040] Opening '/data/transcodes/36526249ed0b1f20ddd8f88a3549135487.ts' for writing
[hls @ 0x55558392b040] Opening '/data/transcodes/36526249ed0b1f20ddd8f88a3549135488.ts' for writing
frame=12817 fps=1951 q=-1.0 size=N/A time=00:07:49.15 bitrate=N/A speed=71.4x    
[hls @ 0x55558392b040] Opening '/data/transcodes/36526249ed0b1f20ddd8f88a3549135489.ts' for writing
[hls @ 0x55558392b040] Opening '/data/transcodes/36526249ed0b1f20ddd8f88a3549135490.ts' for writing
[hls @ 0x55558392b040] Opening '/data/transcodes/36526249ed0b1f20ddd8f88a3549135491.ts' for writing
[hls @ 0x55558392b040] Opening '/data/transcodes/36526249ed0b1f20ddd8f88a3549135492.ts' for writing
[hls @ 0x55558392b040] Opening '/data/transcodes/36526249ed0b1f20ddd8f88a3549135493.ts' for writing
[hls @ 0x55558392b040] Opening '/data/transcodes/36526249ed0b1f20ddd8f88a3549135494.ts' for writing
[hls @ 0x55558392b040] Opening '/data/transcodes/36526249ed0b1f20ddd8f88a3549135495.ts' for writing
[hls @ 0x55558392b040] Opening '/data/transcodes/36526249ed0b1f20ddd8f88a3549135496.ts' for writing
frame=13969 fps=1974 q=-1.0 size=N/A time=00:08:37.15 bitrate=N/A speed=73.1x    
[hls @ 0x55558392b040] Opening '/data/transcodes/36526249ed0b1f20ddd8f88a3549135497.ts' for writing
[hls @ 0x55558392b040] Opening '/data/transcodes/36526249ed0b1f20ddd8f88a3549135498.ts' for writing
[hls @ 0x55558392b040] Opening '/data/transcodes/36526249ed0b1f20ddd8f88a3549135499.ts' for writing
[hls @ 0x55558392b040] Opening '/data/transcodes/36526249ed0b1f20ddd8f88a35491354100.ts' for writing
[hls @ 0x55558392b040] Opening '/data/transcodes/36526249ed0b1f20ddd8f88a35491354101.ts' for writing
[hls @ 0x55558392b040] Opening '/data/transcodes/36526249ed0b1f20ddd8f88a35491354102.ts' for writing
[hls @ 0x55558392b040] Opening '/data/transcodes/36526249ed0b1f20ddd8f88a35491354103.ts' for writing
[hls @ 0x55558392b040] Opening '/data/transcodes/36526249ed0b1f20ddd8f88a35491354104.ts' for writing
[hls @ 0x55558392b040] Opening '/data/transcodes/36526249ed0b1f20ddd8f88a35491354105.ts' for writing
[hls @ 0x55558392b040] Opening '/data/transcodes/36526249ed0b1f20ddd8f88a35491354106.ts' for writing
[hls @ 0x55558392b040] Opening '/data/transcodes/36526249ed0b1f20ddd8f88a35491354107.ts' for writing
frame=15610 fps=2061 q=-1.0 size=N/A time=00:09:45.63 bitrate=N/A speed=77.3x    
[hls @ 0x55558392b040] Opening '/data/transcodes/36526249ed0b1f20ddd8f88a35491354108.ts' for writing
[hls @ 0x55558392b040] Opening '/data/transcodes/36526249ed0b1f20ddd8f88a35491354109.ts' for writing
[hls @ 0x55558392b040] Opening '/data/transcodes/36526249ed0b1f20ddd8f88a35491354110.ts' for writing
[hls @ 0x55558392b040] Opening '/data/transcodes/36526249ed0b1f20ddd8f88a35491354111.ts' for writing
[hls @ 0x55558392b040] Opening '/data/transcodes/36526249ed0b1f20ddd8f88a35491354112.ts' for writing
[hls @ 0x55558392b040] Opening '/data/transcodes/36526249ed0b1f20ddd8f88a35491354113.ts' for writing
[hls @ 0x55558392b040] Opening '/data/transcodes/36526249ed0b1f20ddd8f88a35491354114.ts' for writing
[hls @ 0x55558392b040] Opening '/data/transcodes/36526249ed0b1f20ddd8f88a35491354115.ts' for writing
[hls @ 0x55558392b040] Opening '/data/transcodes/36526249ed0b1f20ddd8f88a35491354116.ts' for writing
[hls @ 0x55558392b040] Opening '/data/transcodes/36526249ed0b1f20ddd8f88a35491354117.ts' for writing
[hls @ 0x55558392b040] Opening '/data/transcodes/36526249ed0b1f20ddd8f88a35491354118.ts' for writing
frame=17137 fps=2120 q=-1.0 size=N/A time=00:10:49.15 bitrate=N/A speed=80.3x    
[hls @ 0x55558392b040] Opening '/data/transcodes/36526249ed0b1f20ddd8f88a35491354119.ts' for writing
[hls @ 0x55558392b040] Opening '/data/transcodes/36526249ed0b1f20ddd8f88a35491354120.ts' for writing
[hls @ 0x55558392b040] Opening '/data/transcodes/36526249ed0b1f20ddd8f88a35491354121.ts' for writing
[hls @ 0x55558392b040] Opening '/data/transcodes/36526249ed0b1f20ddd8f88a35491354122.ts' for writing
[hls @ 0x55558392b040] Opening '/data/transcodes/36526249ed0b1f20ddd8f88a35491354123.ts' for writing
[hls @ 0x55558392b040] Opening '/data/transcodes/36526249ed0b1f20ddd8f88a35491354124.ts' for writing
[hls @ 0x55558392b040] Opening '/data/transcodes/36526249ed0b1f20ddd8f88a35491354125.ts' for writing
[hls @ 0x55558392b040] Opening '/data/transcodes/36526249ed0b1f20ddd8f88a35491354126.ts' for writing
[hls @ 0x55558392b040] Opening '/data/transcodes/36526249ed0b1f20ddd8f88a35491354127.ts' for writing
frame=18441 fps=2149 q=-1.0 size=N/A time=00:11:43.61 bitrate=N/A speed=  82x    
[hls @ 0x55558392b040] Opening '/data/transcodes/36526249ed0b1f20ddd8f88a35491354128.ts' for writing
[hls @ 0x55558392b040] Opening '/data/transcodes/36526249ed0b1f20ddd8f88a35491354129.ts' for writing
[hls @ 0x55558392b040] Opening '/data/transcodes/36526249ed0b1f20ddd8f88a35491354130.ts' for writing
[hls @ 0x55558392b040] Opening '/data/transcodes/36526249ed0b1f20ddd8f88a35491354131.ts' for writing
[hls @ 0x55558392b040] Opening '/data/transcodes/36526249ed0b1f20ddd8f88a35491354132.ts' for writing
[hls @ 0x55558392b040] Opening '/data/transcodes/36526249ed0b1f20ddd8f88a35491354133.ts' for writing
[hls @ 0x55558392b040] Opening '/data/transcodes/36526249ed0b1f20ddd8f88a35491354134.ts' for writing
[hls @ 0x55558392b040] Opening '/data/transcodes/36526249ed0b1f20ddd8f88a35491354135.ts' for writing
[hls @ 0x55558392b040] Opening '/data/transcodes/36526249ed0b1f20ddd8f88a35491354136.ts' for writing
[hls @ 0x55558392b040] Opening '/data/transcodes/36526249ed0b1f20ddd8f88a35491354137.ts' for writing
frame=19873 fps=2185 q=-1.0 size=N/A time=00:12:43.13 bitrate=N/A speed=83.9x    
[hls @ 0x55558392b040] Opening '/data/transcodes/36526249ed0b1f20ddd8f88a35491354138.ts' for writing
[hls @ 0x55558392b040] Opening '/data/transcodes/36526249ed0b1f20ddd8f88a35491354139.ts' for writing
[hls @ 0x55558392b040] Opening '/data/transcodes/36526249ed0b1f20ddd8f88a35491354140.ts' for writing
[hls @ 0x55558392b040] Opening '/data/transcodes/36526249ed0b1f20ddd8f88a35491354141.ts' for writing
[hls @ 0x55558392b040] Opening '/data/transcodes/36526249ed0b1f20ddd8f88a35491354142.ts' for writing
[hls @ 0x55558392b040] Opening '/data/transcodes/36526249ed0b1f20ddd8f88a35491354143.ts' for writing
[hls @ 0x55558392b040] Opening '/data/transcodes/36526249ed0b1f20ddd8f88a35491354144.ts' for writing
[hls @ 0x55558392b040] Opening '/data/transcodes/36526249ed0b1f20ddd8f88a35491354145.ts' for writing
frame=21025 fps=2191 q=-1.0 size=N/A time=00:13:31.13 bitrate=N/A speed=84.5x    
[hls @ 0x55558392b040] Opening '/data/transcodes/36526249ed0b1f20ddd8f88a35491354146.ts' for writing
[hls @ 0x55558392b040] Opening '/data/transcodes/36526249ed0b1f20ddd8f88a35491354147.ts' for writing
[hls @ 0x55558392b040] Opening '/data/transcodes/36526249ed0b1f20ddd8f88a35491354148.ts' for writing
[hls @ 0x55558392b040] Opening '/data/transcodes/36526249ed0b1f20ddd8f88a35491354149.ts' for writing
[hls @ 0x55558392b040] Opening '/data/transcodes/36526249ed0b1f20ddd8f88a35491354150.ts' for writing
[hls @ 0x55558392b040] Opening '/data/transcodes/36526249ed0b1f20ddd8f88a35491354151.ts' for writing
frame=21955 fps=2174 q=-1.0 size=N/A time=00:14:09.91 bitrate=N/A speed=84.2x    
[hls @ 0x55558392b040] Opening '/data/transcodes/36526249ed0b1f20ddd8f88a35491354152.ts' for writing
[hls @ 0x55558392b040] Opening '/data/transcodes/36526249ed0b1f20ddd8f88a35491354153.ts' for writing
[hls @ 0x55558392b040] Opening '/data/transcodes/36526249ed0b1f20ddd8f88a35491354154.ts' for writing
[hls @ 0x55558392b040] Opening '/data/transcodes/36526249ed0b1f20ddd8f88a35491354155.ts' for writing
[hls @ 0x55558392b040] Opening '/data/transcodes/36526249ed0b1f20ddd8f88a35491354156.ts' for writing
[hls @ 0x55558392b040] Opening '/data/transcodes/36526249ed0b1f20ddd8f88a35491354157.ts' for writing
frame=22887 fps=2160 q=-1.0 size=N/A time=00:14:48.86 bitrate=N/A speed=83.9x    
[hls @ 0x55558392b040] Opening '/data/transcodes/36526249ed0b1f20ddd8f88a35491354158.ts' for writing
[hls @ 0x55558392b040] Opening '/data/transcodes/36526249ed0b1f20ddd8f88a35491354159.ts' for writing
[hls @ 0x55558392b040] Opening '/data/transcodes/36526249ed0b1f20ddd8f88a35491354160.ts' for writing
[hls @ 0x55558392b040] Opening '/data/transcodes/36526249ed0b1f20ddd8f88a35491354161.ts' for writing
[hls @ 0x55558392b040] Opening '/data/transcodes/36526249ed0b1f20ddd8f88a35491354162.ts' for writing
[hls @ 0x55558392b040] Opening '/data/transcodes/36526249ed0b1f20ddd8f88a35491354163.ts' for writing
[hls @ 0x55558392b040] Opening '/data/transcodes/36526249ed0b1f20ddd8f88a35491354164.ts' for writing
[hls @ 0x55558392b040] Opening '/data/transcodes/36526249ed0b1f20ddd8f88a35491354165.ts' for writing
[hls @ 0x55558392b040] Opening '/data/transcodes/36526249ed0b1f20ddd8f88a35491354166.ts' for writing
[hls @ 0x55558392b040] Opening '/data/transcodes/36526249ed0b1f20ddd8f88a35491354167.ts' for writing
[hls @ 0x55558392b040] Opening '/data/transcodes/36526249ed0b1f20ddd8f88a35491354168.ts' for writing
[hls @ 0x55558392b040] Opening '/data/transcodes/36526249ed0b1f20ddd8f88a35491354169.ts' for writing
[hls @ 0x55558392b040] Opening '/data/transcodes/36526249ed0b1f20ddd8f88a35491354170.ts' for writing
frame=24625 fps=2218 q=-1.0 size=N/A time=00:16:01.15 bitrate=N/A speed=86.6x    
[hls @ 0x55558392b040] Opening '/data/transcodes/36526249ed0b1f20ddd8f88a35491354171.ts' for writing
[hls @ 0x55558392b040] Opening '/data/transcodes/36526249ed0b1f20ddd8f88a35491354172.ts' for writing
[hls @ 0x55558392b040] Opening '/data/transcodes/36526249ed0b1f20ddd8f88a35491354173.ts' for writing
[hls @ 0x55558392b040] Opening '/data/transcodes/36526249ed0b1f20ddd8f88a35491354174.ts' for writing
[hls @ 0x55558392b040] Opening '/data/transcodes/36526249ed0b1f20ddd8f88a35491354175.ts' for writing
[hls @ 0x55558392b040] Opening '/data/transcodes/36526249ed0b1f20ddd8f88a35491354176.ts' for writing
[hls @ 0x55558392b040] Opening '/data/transcodes/36526249ed0b1f20ddd8f88a35491354177.ts' for writing
[hls @ 0x55558392b040] Opening '/data/transcodes/36526249ed0b1f20ddd8f88a35491354178.ts' for writing
frame=25837 fps=2226 q=-1.0 size=N/A time=00:16:51.87 bitrate=N/A speed=87.2x    
[hls @ 0x55558392b040] Opening '/data/transcodes/36526249ed0b1f20ddd8f88a35491354179.ts' for writing
[hls @ 0x55558392b040] Opening '/data/transcodes/36526249ed0b1f20ddd8f88a35491354180.ts' for writing
[hls @ 0x55558392b040] Opening '/data/transcodes/36526249ed0b1f20ddd8f88a35491354181.ts' for writing
[hls @ 0x55558392b040] Opening '/data/transcodes/36526249ed0b1f20ddd8f88a35491354182.ts' for writing
[hls @ 0x55558392b040] Opening '/data/transcodes/36526249ed0b1f20ddd8f88a35491354183.ts' for writing
[hls @ 0x55558392b040] Opening '/data/transcodes/36526249ed0b1f20ddd8f88a35491354184.ts' for writing
[hls @ 0x55558392b040] Opening '/data/transcodes/36526249ed0b1f20ddd8f88a35491354185.ts' for writing
[hls @ 0x55558392b040] Opening '/data/transcodes/36526249ed0b1f20ddd8f88a35491354186.ts' for writing
[hls @ 0x55558392b040] Opening '/data/transcodes/36526249ed0b1f20ddd8f88a35491354187.ts' for writing
frame=27073 fps=2236 q=-1.0 size=N/A time=00:17:43.13 bitrate=N/A speed=87.8x    
[hls @ 0x55558392b040] Opening '/data/transcodes/36526249ed0b1f20ddd8f88a35491354188.ts' for writing
[hls @ 0x55558392b040] Opening '/data/transcodes/36526249ed0b1f20ddd8f88a35491354189.ts' for writing
[hls @ 0x55558392b040] Opening '/data/transcodes/36526249ed0b1f20ddd8f88a35491354190.ts' for writing
[hls @ 0x55558392b040] Opening '/data/transcodes/36526249ed0b1f20ddd8f88a35491354191.ts' for writing


[q] command received. Exiting.

[hls @ 0x55558392b040] Opening '/data/transcodes/36526249ed0b1f20ddd8f88a35491354192.ts' for writing
frame=27730 fps=2228 q=-1.0 Lsize=N/A time=00:18:10.71 bitrate=N/A speed=87.6x    
video:1825814kB audio:108336kB subtitle:0kB other streams:0kB global headers:0kB muxing overhead: unknown